# xmcd CD database file
#
# Track frame offsets:
#	150
#	30733
#	65726
#	90774
#	116410
#	133152
#	149656
#	165546
#	177866
#	195076
#	210663
#	227571
#	245836
#	262021
#	277336
#
# Disc length: 3916 seconds
#
# Revision: 0
# Processed by: cddbd v1.5.1PL2 Copyright (c) Steve Scherf et al.
# Submitted via: CDex 1.50Beta6
#
DISCID=dd0f4a0f
DTITLE=Sascha Klaar - The Best Of - CD2
DYEAR=1900
DGENRE=Jazz
TTITLE0=My Best Friend
TTITLE1=Black Cat Cadillac
TTITLE2=Fly In Your Arms
TTITLE3=I Got the Boogie
TTITLE4=Snow 4 You
TTITLE5=Halt Mich Ganz Fest
TTITLE6=King Fish Pub Boogie
TTITLE7=Walking On the Beach
TTITLE8=How I Loved You
TTITLE9=Special Nights
TTITLE10=I Feel So Good
TTITLE11=Sunday Afternoon
TTITLE12=Good Old Years Boogie
TTITLE13=Janis
TTITLE14=For My Love
EXTD=
EXTT0=
EXTT1=
EXTT2=
EXTT3=
EXTT4=
EXTT5=
EXTT6=
EXTT7=
EXTT8=
EXTT9=
EXTT10=
EXTT11=
EXTT12=
EXTT13=
EXTT14=
PLAYORDER=
